<?xml version="1.0" encoding="UTF-8" standalone="no"?>
<svg
   version="1.1"
   id="svg1929"
   width="245.40924"
   height="252.18668"
   viewBox="0 0 245.40924 252.18668"
   sodipodi:docname="gitcy.svg"
   inkscape:version="1.1 (c68e22c387, 2021-05-23)"
   inkscape:export-filename="C:\Users\Admin\Downloads\10. SVGs\retcy_logo_stuff\gitcy.png"
   inkscape:export-xdpi="96"
   inkscape:export-ydpi="96"
   xmlns:inkscape="http://www.inkscape.org/namespaces/inkscape"
   xmlns:sodipodi="http://sodipodi.sourceforge.net/DTD/sodipodi-0.dtd"
   xmlns:xlink="http://www.w3.org/1999/xlink"
   xmlns="http://www.w3.org/2000/svg"
   xmlns:svg="http://www.w3.org/2000/svg"
   xmlns:rdf="http://www.w3.org/1999/02/22-rdf-syntax-ns#"
   xmlns:cc="http://creativecommons.org/ns#"
   xmlns:dc="http://purl.org/dc/elements/1.1/">
  <metadata
     id="metadata1935">
    <rdf:RDF>
      <cc:Work
         rdf:about="">
        <dc:format>image/svg+xml</dc:format>
        <dc:type
           rdf:resource="http://purl.org/dc/dcmitype/StillImage" />
      </cc:Work>
    </rdf:RDF>
  </metadata>
  <defs
     id="defs1933">
    <linearGradient
       inkscape:collect="always"
       id="linearGradient7267-1">
      <stop
         style="stop-color:#ffe6d5;stop-opacity:1"
         offset="0"
         id="stop7263" />
      <stop
         style="stop-color:#ffffff;stop-opacity:1"
         offset="1"
         id="stop7265" />
    </linearGradient>
    <linearGradient
       inkscape:collect="always"
       xlink:href="#linearGradient9400-5"
       id="linearGradient9402"
       x1="665.11798"
       y1="281.49875"
       x2="750.42273"
       y2="216.49318"
       gradientUnits="userSpaceOnUse"
       gradientTransform="matrix(0.44402487,0,0,0.44402487,357.33906,165.94939)" />
    <linearGradient
       inkscape:collect="always"
       id="linearGradient9400-5">
      <stop
         style="stop-color:#4500f5;stop-opacity:1"
         offset="0"
         id="stop9396" />
      <stop
         style="stop-color:#0473ff;stop-opacity:1"
         offset="1"
         id="stop9398" />
    </linearGradient>
    <linearGradient
       inkscape:collect="always"
       xlink:href="#linearGradient6452"
       id="linearGradient6454"
       x1="968.08643"
       y1="368.21756"
       x2="991.91022"
       y2="360.64999"
       gradientUnits="userSpaceOnUse"
       gradientTransform="matrix(3.2957496,0,0,3.2121922,-2625.0759,-826.07187)" />
    <linearGradient
       inkscape:collect="always"
       id="linearGradient6452">
      <stop
         style="stop-color:#ff00a0;stop-opacity:1"
         offset="0"
         id="stop6448" />
      <stop
         style="stop-color:#ff0000;stop-opacity:1"
         offset="1"
         id="stop6450" />
    </linearGradient>
    <path
       id="SVGID_1_"
       d="m 98.1,244.8 c 1.6,7.5 5.5,11.9 9.4,14.5 h 41.1 c 5,-3.4 10.1,-9.8 10.1,-21.8 v -31 c 0,0 0.6,-7.7 7.7,-10.2 0,0 4.1,-2.9 -0.3,-4.5 0,0 -19.5,-1.6 -19.5,14.4 v 23.6 c 0,0 0.8,8.7 -3.8,12.3 v -29.2 c 0,0 0.3,-9.3 5.1,-12.8 0,0 3.2,-5.7 -3.8,-4.2 0,0 -13.4,1.9 -14,17.6 l -0.3,30 h -3.2 l -0.3,-30 c -0.6,-15.6 -14,-17.6 -14,-17.6 -7,-1.6 -3.8,4.2 -3.8,4.2 4.8,3.5 5.1,12.8 5.1,12.8 v 29.5 c -4.6,-3.3 -3.8,-12.6 -3.8,-12.6 v -23.6 c 0,-16 -19.5,-14.4 -19.5,-14.4 -4.5,1.6 -0.3,4.5 -0.3,4.5 7,2.6 7.7,10.2 7.7,10.2 v 21.7 z" />
    <linearGradient
       inkscape:collect="always"
       xlink:href="#linearGradient7267-1"
       id="linearGradient17673"
       x1="598.81732"
       y1="472.54053"
       x2="689.40875"
       y2="394.45456"
       gradientUnits="userSpaceOnUse"
       gradientTransform="matrix(1.0459722,0,0,1.0459722,-29.429097,-19.326052)" />
    <linearGradient
       inkscape:collect="always"
       xlink:href="#linearGradient9400-5"
       id="linearGradient18319"
       x1="590.05078"
       y1="470.97983"
       x2="695.42023"
       y2="380.60623"
       gradientUnits="userSpaceOnUse" />
    <linearGradient
       inkscape:collect="always"
       xlink:href="#linearGradient5078"
       id="linearGradient5080"
       x1="939.46582"
       y1="363.06354"
       x2="957.60419"
       y2="361.36249"
       gradientUnits="userSpaceOnUse" />
    <linearGradient
       inkscape:collect="always"
       id="linearGradient5078">
      <stop
         style="stop-color:#d80025;stop-opacity:1"
         offset="0"
         id="stop5074" />
      <stop
         style="stop-color:#ff6600;stop-opacity:1"
         offset="1"
         id="stop5076" />
    </linearGradient>
    <linearGradient
       inkscape:collect="always"
       xlink:href="#linearGradient1450"
       id="linearGradient1452"
       x1="331.60013"
       y1="144.63031"
       x2="422.27032"
       y2="118.18435"
       gradientUnits="userSpaceOnUse"
       gradientTransform="matrix(0.81380355,0,0,0.81380355,101.48528,-12.034911)" />
    <linearGradient
       inkscape:collect="always"
       id="linearGradient1450">
      <stop
         style="stop-color:#e0ff3e;stop-opacity:1"
         offset="0"
         id="stop1446" />
      <stop
         style="stop-color:#00e64a;stop-opacity:1"
         offset="1"
         id="stop1448" />
    </linearGradient>
  </defs>
  <sodipodi:namedview
     pagecolor="#1e1e1e"
     bordercolor="#666666"
     borderopacity="1"
     objecttolerance="10"
     gridtolerance="10"
     guidetolerance="10"
     inkscape:pageopacity="0"
     inkscape:pageshadow="2"
     inkscape:window-width="1280"
     inkscape:window-height="777"
     id="namedview1931"
     showgrid="false"
     inkscape:document-rotation="0"
     inkscape:zoom="0.44598294"
     inkscape:cx="189.46913"
     inkscape:cy="126.68646"
     inkscape:window-x="-8"
     inkscape:window-y="-8"
     inkscape:window-maximized="1"
     inkscape:current-layer="g1937"
     showguides="true"
     inkscape:guide-bbox="true"
     inkscape:pagecheckerboard="0">
    <sodipodi:guide
       position="126.11813,71.958873"
       orientation="1,0"
       id="guide7" />
    <sodipodi:guide
       position="126.11813,132.20794"
       orientation="0,-1"
       id="guide9" />
  </sodipodi:namedview>
  <g
     inkscape:groupmode="layer"
     inkscape:label="Image"
     id="g1937"
     transform="translate(-514.42462,-306.52127)">
    <circle
       style="fill:url(#linearGradient18319);fill-opacity:1;stroke-width:15"
       id="path1031"
       cx="640.15906"
       cy="426.58578"
       r="95.295128" />
    <rect
       style="fill:url(#linearGradient9402);fill-opacity:1;stroke:none;stroke-width:6.66038"
       id="rect323-4"
       width="49.493462"
       height="49.493462"
       x="641.75592"
       y="256.33908"
       transform="rotate(18.165375)" />
    <ellipse
       style="fill:url(#linearGradient6454);fill-opacity:1;stroke-width:49.1337"
       id="path3475"
       cx="600.13409"
       cy="340.28299"
       rx="34.639946"
       ry="33.761723" />
    <path
       style="fill:url(#linearGradient17673);fill-opacity:1;stroke-width:4.39748"
       d="m 631.07137,525.90628 c -14.40686,-1.25723 -30.11212,-6.50304 -42.73298,-14.27348 -25.25729,-15.55046 -41.98026,-40.81979 -46.58789,-70.39684 -0.75627,-4.8546 -1.05872,-17.70334 -0.55817,-23.71283 1.46541,-17.59362 8.46355,-35.60479 19.54818,-50.3113 16.92982,-22.46163 41.85896,-36.47858 69.84888,-39.27404 3.88459,-0.38798 14.76999,-0.39098 18.95136,-0.005 14.87052,1.37185 30.63169,6.73364 43.48814,14.79422 21.76956,13.64881 37.54358,35.62435 43.74517,60.94343 2.18435,8.91799 2.76623,14.86373 2.52851,25.83662 -0.18675,8.62025 -0.36837,10.44583 -1.68204,16.90682 -6.42729,31.61129 -27.78685,58.23698 -57.22141,71.32913 -9.97423,4.43642 -21.48737,7.37369 -31.65053,8.07478 -3.67984,0.25385 -15.12669,0.31131 -17.67722,0.0887 z m -5.9982,-43.77978 1.16098,-0.59229 v -6.25182 -6.25182 l -4.39009,0.14091 c -4.8781,0.15658 -7.1597,-0.15076 -9.57229,-1.28942 -2.11242,-0.99699 -3.76099,-2.91583 -6.12628,-7.13067 -1.76474,-3.14465 -2.44606,-4.03878 -4.96696,-6.51824 -3.34856,-3.29354 -3.37595,-3.58968 -0.3294,-3.56102 2.76438,0.026 4.10041,0.78917 6.99445,3.99537 4.79152,5.30836 6.12752,6.5205 7.84581,7.11844 2.06511,0.71861 6.45615,0.73039 8.83371,0.0236 l 1.66035,-0.49352 0.91828,-2.41779 c 0.50504,-1.32979 1.38355,-3.12279 1.95221,-3.98448 0.56866,-0.86167 0.96841,-1.63219 0.88833,-1.71228 -0.0801,-0.0801 -1.62704,-0.45936 -3.43769,-0.84284 -5.91358,-1.25244 -9.43191,-2.6262 -12.75059,-4.97858 -6.71225,-4.75784 -9.76508,-12.35258 -9.42246,-23.44091 0.11674,-3.77834 0.24396,-4.70333 0.90355,-6.56984 0.85174,-2.41023 2.07888,-4.72954 3.6273,-6.85559 l 1.02376,-1.40568 -0.51719,-2.46451 c -0.9972,-4.75184 0.0534,-12.20328 1.78186,-12.63707 1.95834,-0.49152 6.61697,1.05085 11.68251,3.8678 l 3.43688,1.91126 2.9862,-0.60904 c 7.19698,-1.46785 16.11023,-1.46596 22.96179,0.005 l 2.97061,0.6377 2.01319,-1.16991 c 4.79292,-2.78525 9.80788,-4.75935 12.09059,-4.75935 1.47542,0 2.03141,0.7185 2.57959,3.33365 0.46606,2.2233 0.50106,8.02964 0.0616,10.21784 l -0.32725,1.6295 1.7529,2.66079 c 2.49248,3.78341 3.62065,7.27031 3.81555,11.79279 0.43973,10.20428 -2.57122,18.36772 -8.55164,23.18565 -3.28972,2.65024 -7.55319,4.42148 -13.39218,5.56369 -1.72202,0.33685 -3.29519,0.71397 -3.49592,0.83802 -0.26942,0.16652 -0.0887,0.67532 0.69046,1.94375 1.2279,1.999 1.86287,3.68349 2.11692,5.61582 0.0998,0.75864 0.2684,5.72784 0.3748,11.04268 l 0.19347,9.66333 0.99614,0.67073 c 1.26382,0.85096 2.05968,0.84283 4.6781,-0.0477 4.64668,-1.58043 10.00729,-4.52313 14.7653,-8.10537 3.38947,-2.55189 9.67134,-8.97615 12.01736,-12.28976 11.73971,-16.58158 14.21479,-37.63847 6.58901,-56.05672 -6.92153,-16.71731 -21.313,-29.34636 -38.64287,-33.91054 -4.41951,-1.16397 -6.20531,-1.45848 -10.86077,-1.79121 -9.77847,-0.69885 -20.15202,1.25425 -28.93628,5.44803 -6.2718,2.99431 -10.28502,5.76762 -15.24223,10.53306 -5.25193,5.04876 -8.49412,9.46735 -11.73489,15.99281 -8.66129,17.43994 -8.118,37.80015 1.45497,54.52505 6.32189,11.04492 16.12916,19.77187 27.82879,24.76332 4.05233,1.72884 5.30182,1.90919 7.04965,1.01752 z"
       id="path17468" />
    <path
       sodipodi:type="star"
       style="fill:url(#linearGradient5080);fill-opacity:1;stroke-width:15"
       id="path4177"
       inkscape:flatsided="true"
       sodipodi:sides="3"
       sodipodi:cx="951.55737"
       sodipodi:cy="366.55405"
       sodipodi:r1="13.962096"
       sodipodi:r2="6.9810481"
       sodipodi:arg1="0.52359878"
       sodipodi:arg2="1.5707963"
       inkscape:rounded="0"
       inkscape:randomized="0"
       inkscape:transform-center-y="7.07765"
       transform="matrix(2.7876452,2.7241365,-2.6294076,2.6907078,-965.66253,-3071.477)"
       inkscape:transform-center-x="7.6751912"
       d="m 963.6489,373.53509 -24.18306,0 12.09153,-20.94314 z" />
    <path
       sodipodi:type="star"
       style="fill:url(#linearGradient1452);fill-opacity:1;stroke:none;stroke-width:15"
       id="path531"
       inkscape:flatsided="true"
       sodipodi:sides="5"
       sodipodi:cx="403.47998"
       sodipodi:cy="88.325859"
       sodipodi:r1="43.793793"
       sodipodi:r2="35.42992"
       sodipodi:arg1="-1.5707963"
       sodipodi:arg2="-0.9424778"
       inkscape:rounded="0"
       inkscape:randomized="0"
       inkscape:transform-center-y="0.11265314"
       inkscape:transform-center-x="-1.9404917"
       transform="matrix(0.45893936,0.15705714,-0.15619937,0.45643285,538.91451,255.87136)"
       d="m 403.47998,44.532066 41.65037,30.260768 -15.90902,48.962946 -51.4827,0 -15.90902,-48.962948 z" />
  </g>
</svg>
